<?xml version="1.0" encoding="UTF-8" standalone="no"?>
<svg
   xmlns:dc="http://purl.org/dc/elements/1.1/"
   xmlns:cc="http://creativecommons.org/ns#"
   xmlns:rdf="http://www.w3.org/1999/02/22-rdf-syntax-ns#"
   xmlns:svg="http://www.w3.org/2000/svg"
   xmlns="http://www.w3.org/2000/svg"
   xmlns:sodipodi="http://sodipodi.sourceforge.net/DTD/sodipodi-0.dtd"
   xmlns:inkscape="http://www.inkscape.org/namespaces/inkscape"
   sodipodi:docname="hourIcon.svg"
   inkscape:version="1.0.2 (1.0.2+r75+1)"
   id="svg8"
   version="1.1"
   viewBox="0 0 5.9255737 6.0518002"
   height="6.0518003mm"
   width="5.9255738mm">
  <defs
     id="defs2">
    <rect
       x="-205.89296"
       y="552.80286"
       width="34.921249"
       height="18.391603"
       id="rect1543" />
    <marker
       style="overflow:visible"
       id="Arrow1Lend"
       refX="0"
       refY="0"
       orient="auto"
       inkscape:stockid="Arrow1Lend"
       inkscape:isstock="true">
      <path
         transform="matrix(-0.8,0,0,-0.8,-10,0)"
         style="fill:#000000;fill-opacity:1;fill-rule:evenodd;stroke:#000000;stroke-width:1pt;stroke-opacity:1"
         d="M 0,0 5,-5 -12.5,0 5,5 Z"
         id="path920" />
    </marker>
    <marker
       style="overflow:visible"
       id="DotL"
       refX="0"
       refY="0"
       orient="auto"
       inkscape:stockid="DotL"
       inkscape:isstock="true">
      <path
         transform="matrix(0.8,0,0,0.8,5.92,0.8)"
         style="fill:#000000;fill-opacity:1;fill-rule:evenodd;stroke:#000000;stroke-width:1pt;stroke-opacity:1"
         d="m -2.5,-1 c 0,2.76 -2.24,5 -5,5 -2.76,0 -5,-2.24 -5,-5 0,-2.76 2.24,-5 5,-5 2.76,0 5,2.24 5,5 z"
         id="path978" />
    </marker>
  </defs>
  <sodipodi:namedview
     showguides="true"
     inkscape:document-rotation="0"
     inkscape:snap-global="false"
     inkscape:pagecheckerboard="false"
     inkscape:window-maximized="1"
     inkscape:window-y="27"
     inkscape:window-x="67"
     inkscape:window-height="1025"
     inkscape:window-width="1853"
     showborder="false"
     showgrid="false"
     inkscape:current-layer="text1048"
     inkscape:document-units="px"
     inkscape:cy="11.436665"
     inkscape:cx="11.197935"
     inkscape:zoom="19.886943"
     inkscape:pageshadow="2"
     inkscape:pageopacity="0"
     borderopacity="1.0"
     bordercolor="#666666"
     pagecolor="#ffffff"
     id="base"
     inkscape:snap-object-midpoints="true"
     inkscape:snap-center="true"
     inkscape:snap-others="true"
     inkscape:object-paths="true"
     inkscape:snap-smooth-nodes="true"
     inkscape:snap-to-guides="false"
     inkscape:snap-grids="false"
     fit-margin-top="0"
     fit-margin-left="0"
     fit-margin-right="0"
     fit-margin-bottom="0" />
  <metadata
     id="metadata5">
    <rdf:RDF>
      <cc:Work
         rdf:about="">
        <dc:format>image/svg+xml</dc:format>
        <dc:type
           rdf:resource="http://purl.org/dc/dcmitype/StillImage" />
        <dc:title></dc:title>
      </cc:Work>
    </rdf:RDF>
  </metadata>
  <g
     id="layer1"
     inkscape:groupmode="layer"
     inkscape:label="Layer 1"
     transform="translate(-0.16147796,-510.60558)">
    <g
       id="path915"
       style="opacity:1" />
    <text
       xml:space="preserve"
       id="text1541"
       style="font-size:8.46667px;line-height:1.25;font-family:'Times New Roman';-inkscape-font-specification:'Times New Roman, ';letter-spacing:0px;word-spacing:0px;white-space:pre;shape-inside:url(#rect1543);" />
    <g
       aria-label="AM"
       id="text1333"
       style="font-size:8.46667px;line-height:1.25;font-family:'Times New Roman';-inkscape-font-specification:'Times New Roman, ';letter-spacing:0px;word-spacing:0px;fill:#000000;stroke-width:0.264583"
       transform="translate(-14.333003,7.4773804)" />
    <g
       aria-label="PM"
       id="g2161"
       style="font-size:8.46667px;line-height:1.25;font-family:'Times New Roman';-inkscape-font-specification:'Times New Roman, ';letter-spacing:0px;word-spacing:0px;fill:#000000;stroke-width:0.264583"
       transform="translate(50.993552,21.959079)" />
    <circle
       style="fill:#ff0000;stroke-width:0.0529167;stroke-linecap:round;stroke-linejoin:round;paint-order:fill markers stroke;stop-color:#000000"
       id="path1042"
       cx="3.124265"
       cy="513.63153"
       r="4.9758358" />
    <g
       aria-label="時"
       id="text1048"
       style="font-size:6.64302px;line-height:1.25;font-family:'Times New Roman';-inkscape-font-specification:'Times New Roman, ';letter-spacing:0px;word-spacing:0px;fill:#ffffff;stroke-width:0.264583">
      <path
         d="m 0.57334521,515.16272 v -1.80026 H 1.503368 v 1.80026 z M 1.503368,511.38948 v 1.77369 H 0.57334521 v -1.77369 z m 0.1727186,-0.47165 -0.2391488,0.27236 H 0.65970448 l -0.49822652,-0.21258 v 5.13506 h 0.0664302 c 0.21257664,0 0.34543704,-0.11293 0.34543704,-0.15279 v -0.61116 H 1.503368 v 0.45837 h 0.059787 c 0.1461465,0 0.3520801,-0.10629 0.3587231,-0.15943 v -4.17846 c 0.1328604,-0.0266 0.2391487,-0.0797 0.2790069,-0.13286 z m 4.1983887,2.05933 c 0.093002,0 0.1527895,-0.0332 0.1660755,-0.10629 -0.2059336,-0.20593 -0.5712997,-0.48494 -0.5712997,-0.48494 l -0.305579,0.39859 H 4.0941459 v -0.97653 h 1.5478237 c 0.093002,0 0.1594325,-0.0332 0.1793615,-0.10629 -0.2125766,-0.20593 -0.5646567,-0.47165 -0.5646567,-0.47165 l -0.3055789,0.38529 H 4.0941459 v -0.75066 c 0.1660755,-0.0266 0.2325057,-0.093 0.2457917,-0.186 l -0.670945,-0.0731 v 1.00973 H 2.2341003 l 0.053144,0.19265 h 1.3817482 v 0.97653 h -1.640826 l 0.053144,0.19264 z m -3.3215101,1.40168 c 0.2790069,0.28565 0.6178009,0.75066 0.6908741,1.12267 0.4650114,0.34544 0.8503066,-0.63773 -0.6178009,-1.17581 z m 2.7037092,-0.49158 H 4.9378095 v -0.53809 c 0.1461464,-0.0266 0.2125766,-0.0731 0.2258626,-0.16607 L 4.5126562,513.11 v 0.77724 H 2.0613817 l 0.053144,0.19264 H 4.512656 v 1.91319 c 0,0.0996 -0.033215,0.13286 -0.1594325,0.13286 -0.1395034,0 -0.8635926,-0.0465 -0.8635926,-0.0465 v 0.10629 c 0.3122219,0.0399 0.4849404,0.0864 0.5912288,0.16608 0.099645,0.0598 0.1328604,0.17272 0.1527894,0.30558 0.63773,-0.0598 0.7041602,-0.27237 0.7041602,-0.63109 v -1.94641 h 0.9765239 c 0.086359,0 0.1594325,-0.0332 0.1727185,-0.10628 -0.1992906,-0.19929 -0.5447276,-0.45837 -0.5447276,-0.45837 z"
         style="fill:#ffffff;stroke-width:0.264583"
         id="path1028" />
    </g>
  </g>
</svg>
