<?xml version="1.0" encoding="UTF-8" standalone="no"?>
<svg
   xmlns:dc="http://purl.org/dc/elements/1.1/"
   xmlns:cc="http://creativecommons.org/ns#"
   xmlns:rdf="http://www.w3.org/1999/02/22-rdf-syntax-ns#"
   xmlns:svg="http://www.w3.org/2000/svg"
   xmlns="http://www.w3.org/2000/svg"
   xmlns:sodipodi="http://sodipodi.sourceforge.net/DTD/sodipodi-0.dtd"
   xmlns:inkscape="http://www.inkscape.org/namespaces/inkscape"
   sodipodi:docname="ico.svg"
   inkscape:version="1.0.2 (1.0.2+r75+1)"
   id="svg8"
   version="1.1"
   viewBox="0 0 99.411942 99.411949"
   height="99.411949mm"
   width="99.411942mm">
  <defs
     id="defs2" />
  <sodipodi:namedview
     showguides="false"
     inkscape:document-rotation="0"
     inkscape:snap-global="false"
     inkscape:pagecheckerboard="false"
     inkscape:window-maximized="1"
     inkscape:window-y="27"
     inkscape:window-x="67"
     inkscape:window-height="1025"
     inkscape:window-width="1853"
     showborder="false"
     showgrid="false"
     inkscape:current-layer="layer1"
     inkscape:document-units="px"
     inkscape:cy="187.86508"
     inkscape:cx="187.86506"
     inkscape:zoom="1.9907902"
     inkscape:pageshadow="2"
     inkscape:pageopacity="0"
     borderopacity="1.0"
     bordercolor="#666666"
     pagecolor="#ffffff"
     id="base"
     fit-margin-top="0"
     fit-margin-left="0"
     fit-margin-right="0"
     fit-margin-bottom="0" />
  <metadata
     id="metadata5">
    <rdf:RDF>
      <cc:Work
         rdf:about="">
        <dc:format>image/svg+xml</dc:format>
        <dc:type
           rdf:resource="http://purl.org/dc/dcmitype/StillImage" />
        <dc:title />
      </cc:Work>
    </rdf:RDF>
  </metadata>
  <g
     id="layer1"
     inkscape:groupmode="layer"
     inkscape:label="Layer 1"
     transform="translate(211.63097,-476.02111)">
    <g
       id="g1155"
       transform="translate(-79.76182,22.714511)"
       style="fill:none">
      <path
         style="fill:none;stroke:#ff0000;stroke-width:0.264583px;stroke-linecap:butt;stroke-linejoin:miter;stroke-opacity:1"
         d="m -39.345678,527.73329 -4.027135,-2.32506"
         id="path1033"
         sodipodi:nodetypes="cc"
         inkscape:transform-center-y="23.55817"
         inkscape:transform-center-x="-40.803942" />
      <path
         style="fill:none;stroke:#ff0000;stroke-width:0.264583px;stroke-linecap:butt;stroke-linejoin:miter;stroke-opacity:1"
         d="m -32.721786,503.01259 -4.65013,1e-5"
         id="path1035"
         sodipodi:nodetypes="cc"
         inkscape:transform-center-y="4.9381866e-06"
         inkscape:transform-center-x="-47.116336" />
      <path
         style="fill:none;stroke:#ff0000;stroke-width:0.264583px;stroke-linecap:butt;stroke-linejoin:miter;stroke-opacity:1"
         d="m -39.345677,478.29189 -4.027128,2.32507"
         id="path1037"
         sodipodi:nodetypes="cc"
         inkscape:transform-center-y="-23.558165"
         inkscape:transform-center-x="-40.803946" />
      <path
         id="ellipse1039"
         style="fill:none;fill-opacity:0.5;stroke:#000000;stroke-width:0.79375;stroke-miterlimit:4;stroke-dasharray:none;paint-order:fill markers stroke;stop-color:#000000"
         d="m -32.854092,503.01257 a 49.309093,49.309101 0 0 1 -49.309093,49.3091 49.309093,49.309101 0 0 1 -49.309095,-49.3091 49.309093,49.309101 0 0 1 49.309095,-49.3091 49.309093,49.309101 0 0 1 49.309093,49.3091 z" />
      <path
         style="fill:none;stroke:#ff0000;stroke-width:0.264583px;stroke-linecap:butt;stroke-linejoin:miter;stroke-opacity:1"
         d="m -82.163187,453.57119 v 4.65012"
         id="path1041"
         sodipodi:nodetypes="cc"
         inkscape:transform-center-y="-47.11634" />
      <path
         style="fill:none;stroke:#ff0000;stroke-width:0.264583px;stroke-linecap:butt;stroke-linejoin:miter;stroke-opacity:1"
         d="m -57.442486,460.19508 -2.325062,4.02713"
         id="path1043"
         sodipodi:nodetypes="cc"
         inkscape:transform-center-y="-40.803945"
         inkscape:transform-center-x="-23.55817" />
      <path
         style="fill:none;stroke:#000000;stroke-width:0.264583px;stroke-linecap:butt;stroke-linejoin:miter;stroke-opacity:1"
         d="m -76.995157,453.84204 -0.29674,2.82333"
         id="path1045"
         sodipodi:nodetypes="cc"
         inkscape:transform-center-y="-47.758885"
         inkscape:transform-center-x="-5.01966" />
      <path
         style="fill:none;stroke:#000000;stroke-width:0.264583px;stroke-linecap:butt;stroke-linejoin:miter;stroke-opacity:1"
         d="m -71.883746,454.65161 -0.590233,2.77684"
         id="path1047"
         sodipodi:nodetypes="cc"
         inkscape:transform-center-y="-46.97256"
         inkscape:transform-center-x="-9.9843245" />
      <path
         style="fill:none;stroke:#000000;stroke-width:0.264583px;stroke-linecap:butt;stroke-linejoin:miter;stroke-opacity:1"
         d="m -66.884959,455.99103 -0.877258,2.69993"
         id="path1049"
         sodipodi:nodetypes="cc"
         inkscape:transform-center-y="-45.671595"
         inkscape:transform-center-x="-14.839599" />
      <path
         style="fill:none;stroke:#000000;stroke-width:0.264583px;stroke-linecap:butt;stroke-linejoin:miter;stroke-opacity:1"
         d="m -62.053563,457.84563 -1.154672,2.59344"
         id="path1051"
         sodipodi:nodetypes="cc"
         inkscape:transform-center-y="-43.87024"
         inkscape:transform-center-x="-19.532288" />
      <path
         style="fill:none;stroke:#000000;stroke-width:0.264583px;stroke-linecap:butt;stroke-linejoin:miter;stroke-opacity:1"
         d="m -53.102268,463.01366 -1.668646,2.2967"
         id="path1053"
         sodipodi:nodetypes="cc"
         inkscape:transform-center-y="-38.85058"
         inkscape:transform-center-x="-28.226595" />
      <path
         style="fill:none;stroke:#000000;stroke-width:0.264583px;stroke-linecap:butt;stroke-linejoin:miter;stroke-opacity:1"
         d="m -49.08044,466.27047 -1.899576,2.1097"
         id="path1055"
         sodipodi:nodetypes="cc"
         inkscape:transform-center-y="-35.68727"
         inkscape:transform-center-x="-32.132958" />
      <path
         style="fill:none;stroke:#000000;stroke-width:0.264583px;stroke-linecap:butt;stroke-linejoin:miter;stroke-opacity:1"
         d="m -45.421073,469.92984 -2.109694,1.89958"
         id="path1057"
         sodipodi:nodetypes="cc"
         inkscape:transform-center-y="-32.13296"
         inkscape:transform-center-x="-35.687266" />
      <path
         style="fill:none;stroke:#000000;stroke-width:0.264583px;stroke-linecap:butt;stroke-linejoin:miter;stroke-opacity:1"
         d="m -42.164261,473.95167 -2.296697,1.66865"
         id="path1059"
         sodipodi:nodetypes="cc"
         inkscape:transform-center-y="-28.226595"
         inkscape:transform-center-x="-38.850576" />
      <path
         style="fill:none;stroke:#000000;stroke-width:0.264583px;stroke-linecap:butt;stroke-linejoin:miter;stroke-opacity:1"
         d="m -36.996228,482.90296 -2.593441,1.15468"
         id="path1061"
         sodipodi:nodetypes="cc"
         inkscape:transform-center-y="-19.53229"
         inkscape:transform-center-x="-43.870237" />
      <path
         style="fill:none;stroke:#000000;stroke-width:0.264583px;stroke-linecap:butt;stroke-linejoin:miter;stroke-opacity:1"
         d="m -35.141629,487.73436 -2.69993,0.87726"
         id="path1063"
         sodipodi:nodetypes="cc"
         inkscape:transform-center-y="-14.8396"
         inkscape:transform-center-x="-45.671591" />
      <path
         style="fill:none;stroke:#000000;stroke-width:0.264583px;stroke-linecap:butt;stroke-linejoin:miter;stroke-opacity:1"
         d="m -33.802208,492.73315 -2.776838,0.59023"
         id="path1065"
         sodipodi:nodetypes="cc"
         inkscape:transform-center-y="-9.984325"
         inkscape:transform-center-x="-46.972558" />
      <path
         style="fill:none;stroke:#000000;stroke-width:0.264583px;stroke-linecap:butt;stroke-linejoin:miter;stroke-opacity:1"
         d="m -32.99264,497.84456 -2.823322,0.29674"
         id="path1067"
         sodipodi:nodetypes="cc"
         inkscape:transform-center-y="-5.01966"
         inkscape:transform-center-x="-47.758884" />
      <path
         style="fill:none;stroke:#000000;stroke-width:0.264583px;stroke-linecap:butt;stroke-linejoin:miter;stroke-opacity:1"
         d="m -32.99264,508.18062 -2.823321,-0.29674"
         id="path1069"
         sodipodi:nodetypes="cc"
         inkscape:transform-center-x="-47.758884"
         inkscape:transform-center-y="5.01966" />
      <path
         style="fill:none;stroke:#000000;stroke-width:0.264583px;stroke-linecap:butt;stroke-linejoin:miter;stroke-opacity:1"
         d="m -33.802208,513.29203 -2.776836,-0.59023"
         id="path1071"
         sodipodi:nodetypes="cc"
         inkscape:transform-center-x="-46.972559"
         inkscape:transform-center-y="9.984325" />
      <path
         style="fill:none;stroke:#000000;stroke-width:0.264583px;stroke-linecap:butt;stroke-linejoin:miter;stroke-opacity:1"
         d="m -35.141629,518.29082 -2.699928,-0.87726"
         id="path1073"
         sodipodi:nodetypes="cc"
         inkscape:transform-center-x="-45.671592"
         inkscape:transform-center-y="14.8396" />
      <path
         style="fill:none;stroke:#000000;stroke-width:0.264583px;stroke-linecap:butt;stroke-linejoin:miter;stroke-opacity:1"
         d="m -36.996228,523.12222 -2.593439,-1.15468"
         id="path1075"
         sodipodi:nodetypes="cc"
         inkscape:transform-center-x="-43.870238"
         inkscape:transform-center-y="19.53229" />
      <path
         style="fill:none;stroke:#000000;stroke-width:0.264583px;stroke-linecap:butt;stroke-linejoin:miter;stroke-opacity:1"
         d="m -42.164262,532.07351 -2.296695,-1.66865"
         id="path1077"
         sodipodi:nodetypes="cc"
         inkscape:transform-center-x="-38.850576"
         inkscape:transform-center-y="28.226595" />
      <path
         style="fill:none;stroke:#000000;stroke-width:0.264583px;stroke-linecap:butt;stroke-linejoin:miter;stroke-opacity:1"
         d="m -45.421074,536.09534 -2.109692,-1.89958"
         id="path1079"
         sodipodi:nodetypes="cc"
         inkscape:transform-center-x="-35.687266"
         inkscape:transform-center-y="32.13296" />
      <path
         style="fill:none;stroke:#000000;stroke-width:0.264583px;stroke-linecap:butt;stroke-linejoin:miter;stroke-opacity:1"
         d="m -49.08044,539.75471 -1.899575,-2.1097"
         id="path1081"
         sodipodi:nodetypes="cc"
         inkscape:transform-center-x="-32.132959"
         inkscape:transform-center-y="35.68727" />
      <path
         style="fill:none;stroke:#000000;stroke-width:0.264583px;stroke-linecap:butt;stroke-linejoin:miter;stroke-opacity:1"
         d="m -53.102268,543.01152 -1.668645,-2.2967"
         id="path1083"
         sodipodi:nodetypes="cc"
         inkscape:transform-center-x="-28.226596"
         inkscape:transform-center-y="38.85058" />
      <path
         style="fill:none;stroke:#000000;stroke-width:0.264583px;stroke-linecap:butt;stroke-linejoin:miter;stroke-opacity:1"
         d="m -62.053563,548.17955 -1.154672,-2.59344"
         id="path1085"
         sodipodi:nodetypes="cc"
         inkscape:transform-center-x="-19.532288"
         inkscape:transform-center-y="43.87024" />
      <path
         style="fill:none;stroke:#000000;stroke-width:0.264583px;stroke-linecap:butt;stroke-linejoin:miter;stroke-opacity:1"
         d="m -66.884959,550.03415 -0.877258,-2.69993"
         id="path1087"
         sodipodi:nodetypes="cc"
         inkscape:transform-center-x="-14.839599"
         inkscape:transform-center-y="45.671595" />
      <path
         style="fill:none;stroke:#000000;stroke-width:0.264583px;stroke-linecap:butt;stroke-linejoin:miter;stroke-opacity:1"
         d="m -71.883746,551.37357 -0.590233,-2.77684"
         id="path1089"
         sodipodi:nodetypes="cc"
         inkscape:transform-center-x="-9.9843245"
         inkscape:transform-center-y="46.97256" />
      <path
         style="fill:none;stroke:#000000;stroke-width:0.264583px;stroke-linecap:butt;stroke-linejoin:miter;stroke-opacity:1"
         d="m -76.995157,552.18314 -0.29674,-2.82333"
         id="path1091"
         sodipodi:nodetypes="cc"
         inkscape:transform-center-x="-5.01966"
         inkscape:transform-center-y="47.758885" />
      <path
         style="fill:none;stroke:#ff0000;stroke-width:0.264583px;stroke-linecap:butt;stroke-linejoin:miter;stroke-opacity:1"
         d="m -57.442487,545.8301 -2.325071,-4.02713"
         id="path1093"
         sodipodi:nodetypes="cc"
         inkscape:transform-center-y="40.803945"
         inkscape:transform-center-x="-23.558165" />
      <path
         style="fill:none;stroke:#ff0000;stroke-width:0.264583px;stroke-linecap:butt;stroke-linejoin:miter;stroke-opacity:1"
         d="m -82.163187,552.45399 -1e-5,-4.65013"
         id="path1095"
         sodipodi:nodetypes="cc"
         inkscape:transform-center-y="47.116335"
         inkscape:transform-center-x="4.4381865e-06" />
      <path
         style="fill:none;stroke:#ff0000;stroke-width:0.264583px;stroke-linecap:butt;stroke-linejoin:miter;stroke-opacity:1"
         d="m -124.98068,527.73329 4.02713,-2.32506"
         id="path1097"
         sodipodi:nodetypes="cc"
         inkscape:transform-center-y="23.55817"
         inkscape:transform-center-x="40.803942" />
      <path
         style="fill:none;stroke:#ff0000;stroke-width:0.264583px;stroke-linecap:butt;stroke-linejoin:miter;stroke-opacity:1"
         d="m -131.60457,503.01259 4.65013,1e-5"
         id="path1099"
         sodipodi:nodetypes="cc"
         inkscape:transform-center-y="4.9381866e-06"
         inkscape:transform-center-x="47.116335" />
      <path
         style="fill:none;stroke:#ff0000;stroke-width:0.264583px;stroke-linecap:butt;stroke-linejoin:miter;stroke-opacity:1"
         d="m -124.98068,478.29189 4.02712,2.32507"
         id="path1101"
         sodipodi:nodetypes="cc"
         inkscape:transform-center-y="-23.558165"
         inkscape:transform-center-x="40.803946" />
      <path
         style="fill:none;stroke:#ff0000;stroke-width:0.264583px;stroke-linecap:butt;stroke-linejoin:miter;stroke-opacity:1"
         d="m -106.88388,460.19508 2.32507,4.02713"
         id="path1103"
         sodipodi:nodetypes="cc"
         inkscape:transform-center-y="-40.803945"
         inkscape:transform-center-x="23.55817" />
      <path
         style="fill:none;stroke:#000000;stroke-width:0.264583px;stroke-linecap:butt;stroke-linejoin:miter;stroke-opacity:1"
         d="m -87.331197,453.84204 0.29674,2.82333"
         id="path1105"
         sodipodi:nodetypes="cc"
         inkscape:transform-center-y="-47.758885"
         inkscape:transform-center-x="5.0196598" />
      <path
         style="fill:none;stroke:#000000;stroke-width:0.264583px;stroke-linecap:butt;stroke-linejoin:miter;stroke-opacity:1"
         d="m -92.442617,454.65161 0.59024,2.77684"
         id="path1107"
         sodipodi:nodetypes="cc"
         inkscape:transform-center-y="-46.97256"
         inkscape:transform-center-x="9.9843243" />
      <path
         style="fill:none;stroke:#000000;stroke-width:0.264583px;stroke-linecap:butt;stroke-linejoin:miter;stroke-opacity:1"
         d="m -97.441397,455.99103 0.87726,2.69993"
         id="path1109"
         sodipodi:nodetypes="cc"
         inkscape:transform-center-y="-45.671595"
         inkscape:transform-center-x="14.839599" />
      <path
         style="fill:none;stroke:#000000;stroke-width:0.264583px;stroke-linecap:butt;stroke-linejoin:miter;stroke-opacity:1"
         d="m -102.2728,457.84563 1.15467,2.59344"
         id="path1111"
         sodipodi:nodetypes="cc"
         inkscape:transform-center-y="-43.87024"
         inkscape:transform-center-x="19.532288" />
      <path
         style="fill:none;stroke:#000000;stroke-width:0.264583px;stroke-linecap:butt;stroke-linejoin:miter;stroke-opacity:1"
         d="m -111.22409,463.01366 1.66864,2.2967"
         id="path1113"
         sodipodi:nodetypes="cc"
         inkscape:transform-center-y="-38.85058"
         inkscape:transform-center-x="28.226595" />
      <path
         style="fill:none;stroke:#000000;stroke-width:0.264583px;stroke-linecap:butt;stroke-linejoin:miter;stroke-opacity:1"
         d="m -115.24592,466.27047 1.89957,2.1097"
         id="path1115"
         sodipodi:nodetypes="cc"
         inkscape:transform-center-y="-35.68727"
         inkscape:transform-center-x="32.132958" />
      <path
         style="fill:none;stroke:#000000;stroke-width:0.264583px;stroke-linecap:butt;stroke-linejoin:miter;stroke-opacity:1"
         d="m -118.90529,469.92984 2.1097,1.89958"
         id="path1117"
         sodipodi:nodetypes="cc"
         inkscape:transform-center-y="-32.13296"
         inkscape:transform-center-x="35.687266" />
      <path
         style="fill:none;stroke:#000000;stroke-width:0.264583px;stroke-linecap:butt;stroke-linejoin:miter;stroke-opacity:1"
         d="m -122.1621,473.95167 2.2967,1.66865"
         id="path1119"
         sodipodi:nodetypes="cc"
         inkscape:transform-center-y="-28.226595"
         inkscape:transform-center-x="38.850576" />
      <path
         style="fill:none;stroke:#000000;stroke-width:0.264583px;stroke-linecap:butt;stroke-linejoin:miter;stroke-opacity:1"
         d="m -127.33013,482.90296 2.59344,1.15468"
         id="path1121"
         sodipodi:nodetypes="cc"
         inkscape:transform-center-y="-19.53229"
         inkscape:transform-center-x="43.870238" />
      <path
         style="fill:none;stroke:#000000;stroke-width:0.264583px;stroke-linecap:butt;stroke-linejoin:miter;stroke-opacity:1"
         d="m -129.18473,487.73436 2.69993,0.87726"
         id="path1123"
         sodipodi:nodetypes="cc"
         inkscape:transform-center-y="-14.8396"
         inkscape:transform-center-x="45.671593" />
      <path
         style="fill:none;stroke:#000000;stroke-width:0.264583px;stroke-linecap:butt;stroke-linejoin:miter;stroke-opacity:1"
         d="m -130.52415,492.73315 2.77684,0.59023"
         id="path1125"
         sodipodi:nodetypes="cc"
         inkscape:transform-center-y="-9.984325"
         inkscape:transform-center-x="46.972558" />
      <path
         style="fill:none;stroke:#000000;stroke-width:0.264583px;stroke-linecap:butt;stroke-linejoin:miter;stroke-opacity:1"
         d="m -131.33372,497.84456 2.82332,0.29674"
         id="path1127"
         sodipodi:nodetypes="cc"
         inkscape:transform-center-y="-5.01966"
         inkscape:transform-center-x="47.758888" />
      <path
         style="fill:none;stroke:#000000;stroke-width:0.264583px;stroke-linecap:butt;stroke-linejoin:miter;stroke-opacity:1"
         d="m -131.33372,508.18062 2.82332,-0.29674"
         id="path1129"
         sodipodi:nodetypes="cc"
         inkscape:transform-center-x="47.758887"
         inkscape:transform-center-y="5.01966" />
      <path
         style="fill:none;stroke:#000000;stroke-width:0.264583px;stroke-linecap:butt;stroke-linejoin:miter;stroke-opacity:1"
         d="m -130.52415,513.29203 2.77684,-0.59023"
         id="path1131"
         sodipodi:nodetypes="cc"
         inkscape:transform-center-x="46.972558"
         inkscape:transform-center-y="9.984325" />
      <path
         style="fill:none;stroke:#000000;stroke-width:0.264583px;stroke-linecap:butt;stroke-linejoin:miter;stroke-opacity:1"
         d="m -129.18473,518.29082 2.69993,-0.87726"
         id="path1133"
         sodipodi:nodetypes="cc"
         inkscape:transform-center-x="45.671593"
         inkscape:transform-center-y="14.8396" />
      <path
         style="fill:none;stroke:#000000;stroke-width:0.264583px;stroke-linecap:butt;stroke-linejoin:miter;stroke-opacity:1"
         d="m -127.33013,523.12222 2.59344,-1.15468"
         id="path1135"
         sodipodi:nodetypes="cc"
         inkscape:transform-center-x="43.870238"
         inkscape:transform-center-y="19.53229" />
      <path
         style="fill:none;stroke:#000000;stroke-width:0.264583px;stroke-linecap:butt;stroke-linejoin:miter;stroke-opacity:1"
         d="m -122.1621,532.07351 2.2967,-1.66865"
         id="path1137"
         sodipodi:nodetypes="cc"
         inkscape:transform-center-x="38.850576"
         inkscape:transform-center-y="28.226595" />
      <path
         style="fill:none;stroke:#000000;stroke-width:0.264583px;stroke-linecap:butt;stroke-linejoin:miter;stroke-opacity:1"
         d="m -118.90529,536.09534 2.10969,-1.89958"
         id="path1139"
         sodipodi:nodetypes="cc"
         inkscape:transform-center-x="35.687266"
         inkscape:transform-center-y="32.13296" />
      <path
         style="fill:none;stroke:#000000;stroke-width:0.264583px;stroke-linecap:butt;stroke-linejoin:miter;stroke-opacity:1"
         d="m -115.24592,539.75471 1.89957,-2.1097"
         id="path1141"
         sodipodi:nodetypes="cc"
         inkscape:transform-center-x="32.132959"
         inkscape:transform-center-y="35.68727" />
      <path
         style="fill:none;stroke:#000000;stroke-width:0.264583px;stroke-linecap:butt;stroke-linejoin:miter;stroke-opacity:1"
         d="m -111.22409,543.01152 1.66864,-2.2967"
         id="path1143"
         sodipodi:nodetypes="cc"
         inkscape:transform-center-x="28.226596"
         inkscape:transform-center-y="38.85058" />
      <path
         style="fill:none;stroke:#000000;stroke-width:0.264583px;stroke-linecap:butt;stroke-linejoin:miter;stroke-opacity:1"
         d="m -102.2728,548.17955 1.15467,-2.59344"
         id="path1145"
         sodipodi:nodetypes="cc"
         inkscape:transform-center-x="19.532288"
         inkscape:transform-center-y="43.87024" />
      <path
         style="fill:none;stroke:#000000;stroke-width:0.264583px;stroke-linecap:butt;stroke-linejoin:miter;stroke-opacity:1"
         d="m -97.441397,550.03415 0.87726,-2.69993"
         id="path1147"
         sodipodi:nodetypes="cc"
         inkscape:transform-center-x="14.839599"
         inkscape:transform-center-y="45.671595" />
      <path
         style="fill:none;stroke:#000000;stroke-width:0.264583px;stroke-linecap:butt;stroke-linejoin:miter;stroke-opacity:1"
         d="m -92.442617,551.37357 0.59024,-2.77684"
         id="path1149"
         sodipodi:nodetypes="cc"
         inkscape:transform-center-x="9.9843243"
         inkscape:transform-center-y="46.97256" />
      <path
         style="fill:none;stroke:#000000;stroke-width:0.264583px;stroke-linecap:butt;stroke-linejoin:miter;stroke-opacity:1"
         d="m -87.331197,552.18314 0.29674,-2.82333"
         id="path1151"
         sodipodi:nodetypes="cc"
         inkscape:transform-center-x="5.0196598"
         inkscape:transform-center-y="47.758885" />
      <path
         style="fill:none;stroke:#ff0000;stroke-width:0.264583px;stroke-linecap:butt;stroke-linejoin:miter;stroke-opacity:1"
         d="m -106.88387,545.8301 2.32507,-4.02713"
         id="path1153"
         sodipodi:nodetypes="cc"
         inkscape:transform-center-y="40.803945"
         inkscape:transform-center-x="23.558165" />
    </g>
    <g
       aria-label="十一"
       id="text1159"
       style="font-size:8.46667px;line-height:1.25;font-family:'Times New Roman';-inkscape-font-specification:'Times New Roman, ';letter-spacing:0px;word-spacing:0px;stroke-width:0.264583">
      <path
         d="m -181.34022,485.31414 h -1.71027 v -2.73474 c 0.27093,-0.0423 0.34713,-0.14393 0.36407,-0.28786 l -1.45627,-0.14394 v 3.16654 h -3.3782 l 0.0677,0.23707 h 3.31047 v 4.45346 h 0.19473 c 0.44027,0 0.89747,-0.26246 0.89747,-0.381 v -4.07246 h 3.20887 c 0.127,0 0.22013,-0.0423 0.24553,-0.13547 -0.41487,-0.381 -1.1176,-0.95673 -1.1176,-0.95673 z"
         style="font-style:normal;font-variant:normal;font-weight:bold;font-stretch:normal;font-family:'Times New Roman';-inkscape-font-specification:'Times New Roman,  Bold';stroke-width:0.264583"
         id="path2216" />
      <path
         d="m -179.02882,485.72901 0.0762,0.27093 h 7.58613 c 0.14394,0 0.23707,-0.0423 0.26247,-0.13547 -0.46567,-0.44026 -1.2446,-1.1176 -1.2446,-1.1176 l -0.70273,0.98214 z"
         style="font-style:normal;font-variant:normal;font-weight:bold;font-stretch:normal;font-family:'Times New Roman';-inkscape-font-specification:'Times New Roman,  Bold';stroke-width:0.264583"
         id="path2218" />
    </g>
    <g
       aria-label="十"
       id="text1163"
       style="font-size:8.46667px;line-height:1.25;font-family:'Times New Roman';-inkscape-font-specification:'Times New Roman, ';letter-spacing:0px;word-spacing:0px;stroke-width:0.264583">
      <path
         d="m -198.05226,502.77413 h -1.71027 v -2.73473 c 0.27094,-0.0423 0.34714,-0.14394 0.36407,-0.28787 l -1.45627,-0.14393 v 3.16653 h -3.3782 l 0.0677,0.23707 h 3.31047 v 4.45347 h 0.19474 c 0.44026,0 0.89746,-0.26247 0.89746,-0.381 v -4.07247 h 3.20887 c 0.127,0 0.22013,-0.0423 0.24553,-0.13547 -0.41486,-0.381 -1.1176,-0.95673 -1.1176,-0.95673 z"
         style="font-style:normal;font-variant:normal;font-weight:bold;font-stretch:normal;font-family:'Times New Roman';-inkscape-font-specification:'Times New Roman,  Bold';stroke-width:0.264583"
         id="path2221" />
    </g>
    <g
       aria-label="八"
       id="text1167"
       style="font-size:8.46667px;line-height:1.25;font-family:'Times New Roman';-inkscape-font-specification:'Times New Roman, ';letter-spacing:0px;word-spacing:0px;stroke-width:0.264583">
      <path
         d="m -204.1398,551.72401 c 1.905,-0.97367 2.86173,-2.80247 3.28507,-5.11387 0.2032,-0.008 0.29633,-0.1016 0.32173,-0.21167 l -1.43933,-0.26247 c -0.1778,2.32834 -0.87207,4.36034 -2.2606,5.51181 z m 4.6736,-7.47607 -0.36407,0.55033 h -2.31986 l 0.0762,0.24553 h 2.50613 c 0.254,3.0226 0.8128,5.207 2.37914,6.60401 0.1524,-0.41487 0.5334,-0.82974 0.9906,-0.97367 l 0.0508,-0.1016 c -1.88807,-1.016 -2.81094,-3.05647 -3.18347,-5.3594 0.39793,-0.0339 0.6858,-0.11854 0.8128,-0.26247 z"
         style="font-style:normal;font-variant:normal;font-weight:bold;font-stretch:normal;font-family:'Times New Roman';-inkscape-font-specification:'Times New Roman,  Bold';stroke-width:0.264583"
         id="path2224" />
    </g>
    <g
       aria-label="九"
       id="text1171"
       style="font-size:8.46667px;line-height:1.25;font-family:'Times New Roman';-inkscape-font-specification:'Times New Roman, ';letter-spacing:0px;word-spacing:0px;stroke-width:0.264583">
      <path
         d="m -202.37351,526.97171 h -0.0931 c -0.14393,0.56726 -0.29633,1.10913 -0.38946,1.28693 -0.0508,0.0931 -0.0847,0.11007 -0.16934,0.11853 -0.0762,0.008 -0.2286,0.008 -0.4064,0.008 h -0.4572 c -0.2032,0 -0.24553,-0.0508 -0.24553,-0.18627 v -3.937 c 0.18627,-0.0254 0.27093,-0.0847 0.3302,-0.1524 l -0.92287,-0.74506 -0.47413,0.55033 h -1.3462 c 0.0169,-0.56727 0.0254,-1.15994 0.0339,-1.76954 0.2032,-0.0339 0.29634,-0.11853 0.31327,-0.24553 l -1.38007,-0.127 c 0,0.75353 0.008,1.46474 -0.008,2.14207 h -2.12514 l 0.0762,0.24553 h 2.04047 c -0.0762,2.159 -0.49107,3.937 -2.4892,5.40174 l 0.0847,0.11853 c 2.81093,-1.30387 3.31893,-3.19193 3.43746,-5.52027 h 1.46474 v 4.2926 c 0,0.66887 0.16086,0.8636 0.93133,0.8636 h 0.64347 c 1.1176,0 1.49013,-0.18626 1.49013,-0.59266 0,-0.1778 -0.0593,-0.2794 -0.31326,-0.39794 z"
         style="font-style:normal;font-variant:normal;font-weight:bold;font-stretch:normal;font-family:'Times New Roman';-inkscape-font-specification:'Times New Roman,  Bold';stroke-width:0.264583"
         id="path2227" />
    </g>
    <g
       aria-label="四"
       id="text1175"
       style="font-size:8.46667px;line-height:1.25;font-family:'Times New Roman';-inkscape-font-specification:'Times New Roman, ';letter-spacing:0px;word-spacing:0px;stroke-width:0.264583">
      <path
         d="m -126.85691,550.2668 v -1.10066 l 0.0423,0.0508 c 1.778,-0.93134 1.93887,-2.31987 1.9812,-4.13174 h 0.71967 v 2.8702 c 0,0.5588 0.0762,0.74507 0.70273,0.74507 h 0.39793 c 0.8128,0 1.0922,-0.1778 1.0922,-0.51647 0,-0.16933 -0.0423,-0.28786 -0.24553,-0.38946 l -0.0339,-0.82974 h -0.0931 c -0.1016,0.34714 -0.21167,0.71967 -0.27093,0.80434 -0.0339,0.0593 -0.0847,0.0677 -0.14394,0.0762 -0.0423,0.008 -0.11853,0.008 -0.21166,0.008 h -0.2032 c -0.11854,0 -0.13547,-0.0339 -0.13547,-0.14393 v -2.57387 -0.0508 h 1.38007 v 5.1816 z m 1.0922,-5.1816 c -0.008,1.60867 -0.0169,2.90407 -1.0922,3.95394 v -3.95394 z m 4.27567,-0.762 -0.47413,0.52493 h -4.81754 l -1.0414,-0.42333 v 6.90034 h 0.16087 c 0.4064,0 0.80433,-0.23707 0.80433,-0.3556 v -0.46567 h 4.97841 v 0.75353 h 0.16086 c 0.34714,0 0.80434,-0.2286 0.8128,-0.3048 v -5.70653 c 0.1778,-0.0339 0.29634,-0.11007 0.3556,-0.1778 z"
         style="font-style:normal;font-variant:normal;font-weight:bold;font-stretch:normal;font-family:'Times New Roman';-inkscape-font-specification:'Times New Roman,  Bold';stroke-width:0.264583"
         id="path2230" />
    </g>
    <g
       aria-label="七"
       id="text1179"
       style="font-size:8.46667px;line-height:1.25;font-family:'Times New Roman';-inkscape-font-specification:'Times New Roman, ';letter-spacing:0px;word-spacing:0px;stroke-width:0.264583">
      <path
         d="m -181.32329,561.51252 -2.68393,0.508 v -2.5908 c 0.22013,-0.0254 0.29633,-0.127 0.3048,-0.23707 l -1.3208,-0.13546 v 3.1496 l -2.49767,0.47413 0.11007,0.22014 2.3876,-0.44874 v 2.95487 c 0,0.88053 0.41487,1.05833 1.4732,1.05833 h 1.12607 c 1.905,0 2.37066,-0.1778 2.37066,-0.67733 0,-0.19473 -0.0931,-0.31327 -0.42333,-0.44873 l -0.0339,-1.4478 h -0.0847 c -0.22014,0.70273 -0.38947,1.1938 -0.51647,1.397 -0.0762,0.11006 -0.16087,0.14393 -0.31327,0.1524 -0.1778,0.0169 -0.49953,0.0169 -0.90593,0.0169 h -1.10913 c -0.42334,0 -0.56727,-0.0762 -0.56727,-0.33867 v -2.86173 l 4.22487,-0.79587 c 0.11853,-0.0169 0.21166,-0.0847 0.21166,-0.1778 -0.49106,-0.3048 -1.25306,-0.7112 -1.25306,-0.7112 z"
         style="font-style:normal;font-variant:normal;font-weight:bold;font-stretch:normal;font-family:'Times New Roman';-inkscape-font-specification:'Times New Roman,  Bold';stroke-width:0.264583"
         id="path2233" />
    </g>
    <g
       aria-label="六"
       id="text1183"
       style="font-size:8.46667px;line-height:1.25;font-family:'Times New Roman';-inkscape-font-specification:'Times New Roman, ';letter-spacing:0px;word-spacing:0px;stroke-width:0.264583">
      <path
         d="m -165.80273,572.87143 c 1.38854,-0.69427 2.5146,-1.76107 3.29354,-3.47981 0.19473,0.0254 0.31326,-0.0423 0.3556,-0.13546 l -1.32927,-0.55034 c -0.4572,1.68487 -1.43087,3.17501 -2.40453,4.07247 z m 4.69901,-3.95394 c 0.89746,0.9398 1.78646,2.3622 2.02353,3.57294 1.23613,0.9906 2.0574,-1.87961 -1.9304,-3.63221 z m 1.4732,-1.45627 h -1.73567 v -1.6256 c 0.22013,-0.0339 0.29633,-0.11853 0.31327,-0.23706 l -1.34621,-0.11007 v 1.97273 h -3.302 l 0.0677,0.24554 h 7.43373 c 0.127,0 0.21167,-0.0423 0.23707,-0.13547 -0.4064,-0.34713 -1.0668,-0.85513 -1.0668,-0.85513 z"
         style="font-style:normal;font-variant:normal;font-weight:bold;font-stretch:normal;font-family:'Times New Roman';-inkscape-font-specification:'Times New Roman,  Bold';stroke-width:0.264583"
         id="path2236" />
    </g>
    <g
       aria-label="五"
       id="text1187"
       style="font-size:8.46667px;line-height:1.25;font-family:'Times New Roman';-inkscape-font-specification:'Times New Roman, ';letter-spacing:0px;word-spacing:0px;stroke-width:0.264583">
      <path
         d="m -138.33629,562.7656 v 3.31047 h -2.31987 c 0.22014,-0.87207 0.49954,-2.09974 0.762,-3.31047 z m 1.2954,3.31047 h -0.2794 v -3.16654 c 0.1778,-0.0254 0.28787,-0.0931 0.33867,-0.16086 l -0.94827,-0.74507 -0.49107,0.52493 h -1.4224 c 0.16934,-0.82126 0.3302,-1.6256 0.4572,-2.29447 h 3.14961 c 0.127,0 0.22013,-0.0423 0.24553,-0.13546 -0.381,-0.3556 -1.0414,-0.889 -1.0414,-0.889 l -0.57573,0.77893 h -5.37634 l 0.0677,0.24553 h 2.48074 c -0.11854,0.6604 -0.27094,1.46474 -0.44874,2.29447 h -1.7018 l 0.0762,0.23707 h 1.5748 c -0.254,1.20227 -0.5334,2.42993 -0.762,3.31047 h -1.8034 l 0.0677,0.23706 h 7.70467 c 0.127,0 0.22013,-0.0423 0.24553,-0.13546 -0.36407,-0.36407 -0.9906,-0.93134 -0.9906,-0.93134 z"
         style="font-style:normal;font-variant:normal;font-weight:bold;font-stretch:normal;font-family:'Times New Roman';-inkscape-font-specification:'Times New Roman,  Bold';stroke-width:0.264583"
         id="path2239" />
    </g>
    <g
       aria-label="三"
       id="text1191"
       style="font-size:8.46667px;line-height:1.25;font-family:'Times New Roman';-inkscape-font-specification:'Times New Roman, ';letter-spacing:0px;word-spacing:0px;stroke-width:0.264583">
      <path
         d="m -121.91272,528.92329 0.0677,0.23707 h 7.68774 c 0.127,0 0.22013,-0.0423 0.24553,-0.13547 -0.4318,-0.36407 -1.12607,-0.89747 -1.12607,-0.89747 l -0.62653,0.79587 z m 1.02446,-3.0734 0.0677,0.24553 h 5.52027 c 0.127,0 0.22013,-0.0423 0.24553,-0.13547 -0.4064,-0.34713 -1.07527,-0.84666 -1.07527,-0.84666 l -0.59266,0.7366 z m -0.56726,-2.78554 0.0677,0.24554 h 6.77334 c 0.11853,0 0.22013,-0.0423 0.24553,-0.13547 -0.41487,-0.3556 -1.10067,-0.88053 -1.10067,-0.88053 l -0.6096,0.77046 z"
         style="font-style:normal;font-variant:normal;font-weight:bold;font-stretch:normal;font-family:'Times New Roman';-inkscape-font-specification:'Times New Roman,  Bold';stroke-width:0.264583"
         id="path2242" />
    </g>
    <g
       aria-label="二"
       id="text1195"
       style="font-size:8.46667px;line-height:1.25;font-family:'Times New Roman';-inkscape-font-specification:'Times New Roman, ';letter-spacing:0px;word-spacing:0px;stroke-width:0.264583">
      <path
         d="m -128.36397,506.20734 0.0677,0.24553 h 7.50147 c 0.11853,0 0.22013,-0.0423 0.24553,-0.13547 -0.44026,-0.38946 -1.15993,-0.95673 -1.15993,-0.95673 l -0.64347,0.84667 z m 0.82126,-4.75827 0.0677,0.23707 h 5.82507 c 0.11853,0 0.22013,-0.0423 0.24553,-0.13547 -0.42333,-0.37253 -1.13453,-0.93133 -1.13453,-0.93133 l -0.62654,0.82973 z"
         style="font-style:normal;font-variant:normal;font-weight:bold;font-stretch:normal;font-family:'Times New Roman';-inkscape-font-specification:'Times New Roman,  Bold';stroke-width:0.264583"
         id="path2245" />
    </g>
    <g
       aria-label="十二"
       id="text1199"
       style="font-size:8.46667px;line-height:1.25;font-family:'Times New Roman';-inkscape-font-specification:'Times New Roman, ';letter-spacing:0px;word-spacing:0px;stroke-width:0.264583">
      <path
         d="m -163.92314,480.7036 h -1.71027 v -2.73473 c 0.27094,-0.0423 0.34714,-0.14393 0.36407,-0.28787 l -1.45627,-0.14393 v 3.16653 h -3.3782 l 0.0677,0.23707 h 3.31047 v 4.45347 h 0.19474 c 0.44026,0 0.89746,-0.26247 0.89746,-0.381 v -4.07247 h 3.20887 c 0.127,0 0.22013,-0.0423 0.24553,-0.13547 -0.41486,-0.381 -1.1176,-0.95673 -1.1176,-0.95673 z"
         style="font-style:normal;font-variant:normal;font-weight:bold;font-stretch:normal;font-family:'Times New Roman';-inkscape-font-specification:'Times New Roman,  Bold';stroke-width:0.264583"
         id="path2248" />
      <path
         d="m -161.56094,483.89554 0.0677,0.24553 h 7.50147 c 0.11854,0 0.22014,-0.0423 0.24554,-0.13546 -0.44027,-0.38947 -1.15994,-0.95674 -1.15994,-0.95674 l -0.64346,0.84667 z m 0.82127,-4.75827 0.0677,0.23707 h 5.82507 c 0.11853,0 0.22013,-0.0423 0.24553,-0.13547 -0.42333,-0.37253 -1.13453,-0.93133 -1.13453,-0.93133 l -0.62653,0.82973 z"
         style="font-style:normal;font-variant:normal;font-weight:bold;font-stretch:normal;font-family:'Times New Roman';-inkscape-font-specification:'Times New Roman,  Bold';stroke-width:0.264583"
         id="path2250" />
    </g>
    <g
       aria-label="一"
       id="text1203"
       style="font-size:8.46667px;line-height:1.25;font-family:'Times New Roman';-inkscape-font-specification:'Times New Roman, ';letter-spacing:0px;word-spacing:0px;stroke-width:0.264583">
      <path
         d="m -143.40785,486.43173 0.0762,0.27094 h 7.58614 c 0.14393,0 0.23707,-0.0423 0.26247,-0.13547 -0.46567,-0.44027 -1.2446,-1.1176 -1.2446,-1.1176 l -0.70274,0.98213 z"
         style="font-style:normal;font-variant:normal;font-weight:bold;font-stretch:normal;font-family:'Times New Roman';-inkscape-font-specification:'Times New Roman,  Bold';stroke-width:0.264583"
         id="path2253" />
    </g>
    <g
       id="g1217"
       transform="matrix(-0.5,0.8660254,0.8660254,0.5,-729.85831,443.61386)"
       inkscape:transform-center-x="7.3819869"
       inkscape:transform-center-y="-4.007593">
      <g
         id="g1211">
        <path
           id="path1205"
           style="opacity:1;fill:#000000;fill-opacity:1;stroke:none;stroke-width:0.0529167;stroke-miterlimit:4;stroke-dasharray:none;paint-order:fill markers stroke;stop-color:#000000"
           d="m -212.85316,503.83711 c -0.11573,0 -0.23154,0.12813 -0.46301,0.38458 -0.33101,13.75889 -0.41165,17.12284 -0.69474,28.90434 l 2.30286,-0.44305 c -0.32533,-13.14418 -0.35525,-15.41223 -0.68211,-28.46129 -0.23146,-0.25651 -0.34729,-0.38458 -0.46302,-0.38458 z"
           sodipodi:nodetypes="sccccss" />
        <path
           id="path1207"
           style="opacity:1;fill:#ff0000;fill-opacity:1;stroke:none;stroke-width:0.0529167;stroke-miterlimit:4;stroke-dasharray:none;paint-order:fill markers stroke;stop-color:#000000"
           d="m -214.01091,533.12618 c -0.0504,2.09714 -0.20743,8.63831 -0.2552,10.62201 -1.2e-4,0.47895 0.62176,0.86892 1.39518,0.8749 0.005,2e-5 0.0119,2e-5 0.0177,0 0.78035,4e-5 1.41296,-0.39169 1.41291,-0.8749 -0.0542,-2.19112 -0.20409,-8.41018 -0.25693,-10.60966 z"
           sodipodi:nodetypes="ccscccc" />
        <path
           id="path1209"
           style="fill:#ffcc00;fill-opacity:1;stroke:none;stroke-width:0.0529167;stroke-linecap:round;stroke-linejoin:round;stroke-miterlimit:4;stroke-dasharray:none;paint-order:fill markers stroke;stop-color:#000000"
           d="m -214.00023,532.68298 h 2.29218 l 0.0108,0.45555 -2.31366,-0.0125 z"
           sodipodi:nodetypes="ccccc" />
      </g>
      <g
         aria-label="時"
         id="text1215"
         style="font-size:2.04834px;line-height:1.25;font-family:'Times New Roman';-inkscape-font-specification:'Times New Roman, ';letter-spacing:0px;word-spacing:0px;stroke-width:0.264583">
        <path
           d="m -213.5773,539.57979 v -0.56125 h 0.1864 v 0.56125 z m 0.1864,-1.15732 v 0.53872 h -0.1864 v -0.53872 z m 0.0881,-0.18025 -0.10856,0.12085 h -0.13929 l -0.24785,-0.0942 v 1.60999 h 0.0389 c 0.11266,0 0.1823,-0.0532 0.1823,-0.0696 v -0.17206 h 0.1864 v 0.14338 h 0.0348 c 0.0819,0 0.18845,-0.0512 0.1905,-0.0676 v -1.25154 c 0.0389,-0.0102 0.0696,-0.0266 0.0819,-0.0451 z m 0.15157,0.60631 0.0164,0.0574 h 1.15936 c 0.0287,0 0.0492,-0.0102 0.0553,-0.0328 -0.084,-0.0799 -0.22737,-0.19459 -0.22737,-0.19459 l -0.127,0.17001 h -0.20688 v -0.29906 h 0.43835 c 0.0287,0 0.0492,-0.0102 0.0553,-0.0328 -0.0819,-0.0758 -0.21712,-0.1864 -0.21712,-0.1864 l -0.12085,0.16182 h -0.15568 v -0.23556 c 0.0553,-0.008 0.0717,-0.0287 0.0737,-0.0574 l -0.30725,-0.0266 v 0.31954 h -0.38714 l 0.0164,0.0574 h 0.37075 v 0.29906 z m 0.1229,0.45473 c 0.0676,0.0963 0.1352,0.23556 0.14339,0.35846 0.21098,0.1782 0.43834,-0.23556 -0.12495,-0.37075 z m 0.82139,-0.13109 h -0.0287 v -0.15773 c 0.041,-0.006 0.0614,-0.0225 0.0635,-0.0492 l -0.29701,-0.0266 v 0.23352 h -0.68005 l 0.0164,0.0573 h 0.66366 v 0.56534 c 0,0.0246 -0.0102,0.0348 -0.0451,0.0348 -0.0471,0 -0.27858,-0.0123 -0.27858,-0.0123 v 0.0266 c 0.10857,0.0184 0.15568,0.043 0.1905,0.0778 0.0348,0.0348 0.0471,0.0881 0.0533,0.15977 0.27652,-0.0246 0.31339,-0.11266 0.31339,-0.27448 v -0.57763 h 0.27243 c 0.0287,0 0.0512,-0.0102 0.0553,-0.0328 -0.0717,-0.0696 -0.19664,-0.17002 -0.19664,-0.17002 z"
           style="font-style:normal;font-variant:normal;font-weight:bold;font-stretch:normal;font-family:'Times New Roman';-inkscape-font-specification:'Times New Roman,  Bold';stroke-width:0.264583"
           id="path2256" />
      </g>
    </g>
    <g
       id="g1231"
       transform="rotate(60,-165.1666,586.09587)"
       inkscape:transform-center-x="-10.445239"
       inkscape:transform-center-y="-5.7742742">
      <g
         id="g1229"
         transform="translate(-58.509489,-23.357397)">
        <path
           id="path1219"
           style="opacity:1;fill:#000000;fill-opacity:1;stroke:none;stroke-width:0.0529167;stroke-miterlimit:4;stroke-dasharray:none;paint-order:fill markers stroke;stop-color:#000000"
           d="m -157.31927,535.68575 c -0.11573,0 -0.23154,0.1797 -0.46301,0.53937 -0.33101,19.29651 -0.41165,24.01437 -0.69474,40.53764 l 2.30286,-0.62136 c -0.32533,-18.4344 -0.35525,-21.61529 -0.68211,-39.91628 -0.23146,-0.35975 -0.34729,-0.53937 -0.46302,-0.53937 z"
           sodipodi:nodetypes="sccccss" />
        <path
           id="path1221"
           style="opacity:1;fill:#ff0000;fill-opacity:1;stroke:none;stroke-width:0.0529167;stroke-miterlimit:4;stroke-dasharray:none;paint-order:fill markers stroke;stop-color:#000000"
           d="m -158.47702,576.76297 c -0.0504,2.94119 -0.20743,12.11503 -0.2552,14.89712 -1.2e-4,0.67172 0.62176,1.21864 1.39518,1.22703 0.005,2e-5 0.0119,2e-5 0.0177,0 0.78035,5e-5 1.41296,-0.54934 1.41291,-1.22703 -0.0542,-3.07299 -0.20409,-11.79508 -0.25693,-14.8798 z"
           sodipodi:nodetypes="ccscccc" />
        <path
           id="path1223"
           style="fill:#ffcc00;fill-opacity:1;stroke:none;stroke-width:0.0529167;stroke-linecap:round;stroke-linejoin:round;stroke-miterlimit:4;stroke-dasharray:none;paint-order:fill markers stroke;stop-color:#000000"
           d="m -158.46634,576.1414 h 2.29218 l 0.0108,0.63889 -2.31366,-0.0175 z"
           sodipodi:nodetypes="ccccc" />
        <g
           aria-label="分"
           transform="scale(0.84440787,1.1842618)"
           id="text1227"
           style="font-size:2.42577px;line-height:1.25;font-family:'Times New Roman';-inkscape-font-specification:'Times New Roman, ';letter-spacing:0px;word-spacing:0px;stroke-width:0.264583">
          <path
             d="m -186.77664,492.99458 c -0.11159,0.35902 -0.36872,0.80778 -0.73259,1.08675 l 0.0194,0.0267 c 0.48273,-0.20134 0.81506,-0.58219 0.99456,-0.92179 0.0607,0.005 0.0825,-0.0121 0.0946,-0.0412 z m 0.79807,0.97516 h -1.20075 l 0.0218,0.0679 h 0.43906 c -0.0194,0.36387 -0.0873,0.79565 -0.71317,1.18378 l 0.0243,0.034 c 0.81263,-0.32748 0.95332,-0.7908 0.99941,-1.21774 h 0.4512 c -0.0267,0.47788 -0.0704,0.80293 -0.14312,0.866 -0.0243,0.0194 -0.0461,0.0267 -0.0898,0.0267 -0.0606,0 -0.25713,-0.0146 -0.38327,-0.0243 v 0.0315 c 0.11886,0.0218 0.22802,0.0607 0.27411,0.10431 0.0461,0.0412 0.0582,0.11159 0.0582,0.19406 0.1601,0.002 0.25956,-0.0291 0.34446,-0.10188 0.13584,-0.11159 0.19406,-0.45362 0.2256,-1.04793 0.0534,-0.007 0.0825,-0.0243 0.10188,-0.0437 l -0.25956,-0.22074 z m -0.18921,-0.97273 c 0.12372,0.48273 0.38813,0.80778 0.73016,1.03823 0.0437,-0.1407 0.12857,-0.23045 0.245,-0.24986 l 0.007,-0.0267 c -0.36629,-0.13827 -0.78837,-0.39298 -0.95333,-0.77625 z"
             style="font-style:normal;font-variant:normal;font-weight:bold;font-stretch:normal;font-family:'Times New Roman';-inkscape-font-specification:'Times New Roman,  Bold';stroke-width:0.264583"
             id="path2259" />
        </g>
      </g>
    </g>
  </g>
</svg>
