<?xml version="1.0" encoding="UTF-8" standalone="no"?>
<svg
   xmlns:dc="http://purl.org/dc/elements/1.1/"
   xmlns:cc="http://creativecommons.org/ns#"
   xmlns:rdf="http://www.w3.org/1999/02/22-rdf-syntax-ns#"
   xmlns:svg="http://www.w3.org/2000/svg"
   xmlns="http://www.w3.org/2000/svg"
   xmlns:sodipodi="http://sodipodi.sourceforge.net/DTD/sodipodi-0.dtd"
   xmlns:inkscape="http://www.inkscape.org/namespaces/inkscape"
   sodipodi:docname="minuteIcon.svg"
   inkscape:version="1.0.2 (1.0.2+r75+1)"
   id="svg8"
   version="1.1"
   viewBox="0 0 9.9516714 9.9516715"
   height="9.9516716mm"
   width="9.9516716mm">
  <defs
     id="defs2">
    <rect
       x="-205.89296"
       y="552.80286"
       width="34.921249"
       height="18.391603"
       id="rect1543" />
    <marker
       style="overflow:visible"
       id="Arrow1Lend"
       refX="0"
       refY="0"
       orient="auto"
       inkscape:stockid="Arrow1Lend"
       inkscape:isstock="true">
      <path
         transform="matrix(-0.8,0,0,-0.8,-10,0)"
         style="fill:#000000;fill-opacity:1;fill-rule:evenodd;stroke:#000000;stroke-width:1pt;stroke-opacity:1"
         d="M 0,0 5,-5 -12.5,0 5,5 Z"
         id="path920" />
    </marker>
    <marker
       style="overflow:visible"
       id="DotL"
       refX="0"
       refY="0"
       orient="auto"
       inkscape:stockid="DotL"
       inkscape:isstock="true">
      <path
         transform="matrix(0.8,0,0,0.8,5.92,0.8)"
         style="fill:#000000;fill-opacity:1;fill-rule:evenodd;stroke:#000000;stroke-width:1pt;stroke-opacity:1"
         d="m -2.5,-1 c 0,2.76 -2.24,5 -5,5 -2.76,0 -5,-2.24 -5,-5 0,-2.76 2.24,-5 5,-5 2.76,0 5,2.24 5,5 z"
         id="path978" />
    </marker>
  </defs>
  <sodipodi:namedview
     showguides="false"
     inkscape:document-rotation="0"
     inkscape:snap-global="false"
     inkscape:pagecheckerboard="false"
     inkscape:window-maximized="1"
     inkscape:window-y="27"
     inkscape:window-x="67"
     inkscape:window-height="1025"
     inkscape:window-width="1853"
     showborder="false"
     showgrid="false"
     inkscape:current-layer="text1054"
     inkscape:document-units="px"
     inkscape:cy="18.806309"
     inkscape:cx="18.806309"
     inkscape:zoom="19.886943"
     inkscape:pageshadow="2"
     inkscape:pageopacity="0"
     borderopacity="1.0"
     bordercolor="#666666"
     pagecolor="#ffffff"
     id="base"
     inkscape:snap-object-midpoints="true"
     inkscape:snap-center="true"
     inkscape:snap-others="true"
     inkscape:object-paths="true"
     inkscape:snap-smooth-nodes="true"
     inkscape:snap-to-guides="false"
     inkscape:snap-grids="false"
     fit-margin-top="0"
     fit-margin-left="0"
     fit-margin-right="0"
     fit-margin-bottom="0" />
  <metadata
     id="metadata5">
    <rdf:RDF>
      <cc:Work
         rdf:about="">
        <dc:format>image/svg+xml</dc:format>
        <dc:type
           rdf:resource="http://purl.org/dc/dcmitype/StillImage" />
        <dc:title></dc:title>
      </cc:Work>
    </rdf:RDF>
  </metadata>
  <g
     id="layer1"
     inkscape:groupmode="layer"
     inkscape:label="Layer 1"
     transform="translate(-2.2902756,-486.96282)">
    <g
       id="path915"
       style="opacity:1" />
    <text
       xml:space="preserve"
       id="text1541"
       style="font-size:8.46667px;line-height:1.25;font-family:'Times New Roman';-inkscape-font-specification:'Times New Roman, ';letter-spacing:0px;word-spacing:0px;white-space:pre;shape-inside:url(#rect1543);" />
    <g
       aria-label="AM"
       id="text1333"
       style="font-size:8.46667px;line-height:1.25;font-family:'Times New Roman';-inkscape-font-specification:'Times New Roman, ';letter-spacing:0px;word-spacing:0px;fill:#000000;stroke-width:0.264583"
       transform="translate(-14.333003,7.4773804)" />
    <g
       aria-label="PM"
       id="g2161"
       style="font-size:8.46667px;line-height:1.25;font-family:'Times New Roman';-inkscape-font-specification:'Times New Roman, ';letter-spacing:0px;word-spacing:0px;fill:#000000;stroke-width:0.264583"
       transform="translate(50.993552,21.959079)" />
    <circle
       style="fill:#ff0000;stroke-width:0.0529167;stroke-linecap:round;stroke-linejoin:round;paint-order:fill markers stroke;stop-color:#000000"
       id="circle1050"
       cx="7.2661114"
       cy="491.93866"
       r="4.9758358" />
    <g
       aria-label="分"
       id="text1054"
       style="font-size:6.64302px;line-height:1.25;font-family:'Times New Roman';-inkscape-font-specification:'Times New Roman, ';letter-spacing:0px;word-spacing:0px;fill:#ffffff;stroke-width:0.264583">
      <path
         d="m 6.2364432,488.91275 c -0.332151,0.97653 -1.0828123,2.16563 -2.0726223,2.88972 l 0.059787,0.0864 c 1.1691716,-0.62445 1.9995491,-1.7139 2.4313454,-2.624 0.1660755,0.0199 0.2258627,-0.0199 0.2524348,-0.093 z m 2.3516292,2.60407 H 5.0872007 l 0.059787,0.19929 H 6.542022 c -0.059787,0.98317 -0.325508,2.17227 -2.1191235,3.16208 l 0.086359,0.10628 c 2.0460502,-0.92338 2.3981303,-2.16562 2.5110616,-3.26836 H 8.641216 c -0.073073,1.3286 -0.2325057,2.40477 -0.4650114,2.59742 -0.073073,0.0664 -0.1328604,0.0864 -0.2723638,0.0864 -0.1660755,0 -0.7573043,-0.0532 -1.0960983,-0.0864 l -0.00664,0.11293 c 0.298936,0.0465 0.651016,0.12622 0.7573043,0.19929 0.1129314,0.0731 0.1461465,0.19265 0.1461465,0.31887 0.325508,0.007 0.5912288,-0.0797 0.7838764,-0.25908 0.3188649,-0.30558 0.5115125,-1.45482 0.5978718,-2.91629 0.1328604,-0.0133 0.2192196,-0.0531 0.2657208,-0.0996 l -0.5115126,-0.42516 z m -0.7573043,-2.55757 c 0.3720091,1.16918 1.2090296,2.17227 2.1058374,2.77679 0.086358,-0.21258 0.2325055,-0.33215 0.4118675,-0.34544 l 0.01993,-0.0731 c -0.9565951,-0.46501 -2.0061923,-1.39504 -2.4247026,-2.42471 z"
         style="fill:#ffffff;stroke-width:0.264583"
         id="path1028" />
    </g>
  </g>
</svg>
